<svg height="512pt" viewBox="0 0 512 512" width="512pt" xmlns="http://www.w3.org/2000/svg"><path d="m422 105h30v91h-30zm0 0" fill="#bbdcff"/><path d="m30 421h91v91h-91zm0 0" fill="#002659"/><path d="m61 120h90v91h-90zm0 0" fill="#002659"/><path d="m392 421h90v91h-90zm0 0" fill="#001737"/><path d="m0 181v270h512v-270zm0 0" fill="#00429d"/><path d="m256 181h256v270h-256zm0 0" fill="#002659"/><path d="m30 211h452v210h-452zm0 0" fill="#25d9f8"/><path d="m256 211h226v210h-226zm0 0" fill="#00c0f1"/><path d="m181 271h30v30h-30zm0 0" fill="#e0f4ff"/><path d="m181 331h30v30h-30zm0 0" fill="#e0f4ff"/><path d="m345.699219 50.398438-25.800781 15.601562c-13.800782-22.5-37.5-36-63.898438-36s-50.097656 13.5-63.898438 36l-25.800781-15.601562c19.199219-31.5 52.800781-50.398438 89.699219-50.398438s70.5 18.898438 89.699219 50.398438zm0 0" fill="#25d9f8"/><path d="m294.402344 81.597656-25.503906 15.601563c-2.699219-4.800781-7.796876-6.898438-12.898438-6.898438s-10.199219 2.097657-12.898438 6.898438l-25.503906-15.601563c8.402344-13.5 23.402344-20.398437 38.402344-20.398437s30 6.898437 38.402344 20.398437zm0 0" fill="#25d9f8"/><path d="m151 391h-90v-150h90zm-60-30h30v-90h-30zm0 0" fill="#e0f4ff"/><path d="m76 301h60v30h-60zm0 0" fill="#e0f4ff"/><g fill="#00c0f1"><path d="m437 120c-24.8125 0-45-20.1875-45-45s20.1875-45 45-45 45 20.1875 45 45-20.1875 45-45 45zm0 0"/><path d="m268.898438 97.199219c-2.699219-4.800781-7.796876-6.898438-12.898438-6.898438v-29.101562c15 0 30 6.898437 38.402344 20.398437zm0 0"/><path d="m256 30v-30c36.898438 0 70.5 18.898438 89.699219 50.398438l-25.800781 15.601562c-13.800782-22.5-37.5-36-63.898438-36zm0 0"/></g><path d="m241 241v150h90v-150zm60 120h-30v-90h30zm0 0" fill="#e0f4ff"/><path d="m256 241v150h75v-150zm45 120h-30v-90h30zm0 0" fill="#bbdcff"/><path d="m362 241v150h90v-150zm60 120h-30v-90h30zm0 0" fill="#bbdcff"/></svg>